# AST/ASF file generated using VICON BodyLanguage
# -----------------------------------------------
:version 1.10
:name VICON
:units
  mass 1.0
  length 0.45
  angle deg
:documentation
   .ast/.asf automatically generated from VICON data using
   VICON BodyBuilder and BodyLanguage model FoxedUp or BRILLIANT.MOD
:root
   order TX TY TZ RX RY RZ
   axis XYZ
   position 0 0 0  
   orientation 0 0 0 
:bonedata
  begin
     id 1 
     name lhipjoint
     direction 0.707368 -0.647095 0.284426 
     length 2.60678 
     axis 0 0 0  XYZ
  end
  begin
     id 2 
     name lfemur
     direction 0.34202 -0.939693 0  
     length 6.63812  
     axis 0 0 20  XYZ
    dof rx ry rz
    limits (-160.0 20.0)
           (-70.0 70.0)
           (-60.0 70.0)
  end
  begin
     id 3 
     name ltibia
     direction 0.34202 -0.939693 0   
     length 7.51178   
     axis 0 0 20   XYZ
    dof rx
    limits (-10.0 170.0)
  end
  begin
     id 4 
     name lfoot
     direction 0.121251 -0.333133 0.935051   
     length 1.83716   
     axis -90 7.62852e-016 20   XYZ
    dof rx rz
    limits (-45.0 90.0)
           (-70.0 20.0)
  end
  begin
     id 5 
     name ltoes
     direction 1.53611e-011 -4.21962e-011 1   
     length 0.916133   
     axis -90 7.62852e-016 20   XYZ
    dof rx
    limits (-90.0 20.0)
  end
  begin
     id 6 
     name rhipjoint
     direction -0.692419 -0.660507 0.290321   
     length 2.55385  
     axis 0 0 0  XYZ 
  end
  begin
     id 7 
     name rfemur
     direction -0.34202 -0.939693 0   
     length 7.29079   
     axis 0 0 -20   XYZ
    dof rx ry rz
    limits (-160.0 20.0)
           (-70.0 70.0)
           (-70.0 60.0)
  end
  begin
     id 8 
     name rtibia
     direction -0.34202 -0.939693 0   
     length 7.47143   
     axis 0 0 -20   XYZ
    dof rx
    limits (-10.0 170.0)
 end
 begin
     id 9 
     name rfoot
     direction -0.119907 -0.329441 0.936532   
     length 1.79439  
     axis -90 -7.62852e-016 -20   XYZ
    dof rx rz
    limits (-45.0 90.0)
           (-20.0 70.0)
  end
  begin
     id 10 
     name rtoes
     direction -1.53571e-011 -4.21961e-011 1   
     length 0.896039   
     axis -90 -7.62852e-016 -20   XYZ
    dof rx
    limits (-90.0 20.0)
  end
  begin
     id 11 
     name lowerback
     direction 0.0367721 0.992912 -0.113016   
     length 1.73542   
     axis 0 0 0   XYZ
    dof rx ry rz
    limits (-20.0 45.0)
           (-30.0 30.0)
           (-30.0 30.0)
  end
  begin
     id 12 
     name upperback
     direction -0.000314626 0.990678 0.136227   
     length 1.7514   
     axis 0 0 0   XYZ
    dof rx ry rz
    limits (-20.0 45.0)
           (-30.0 30.0)
           (-30.0 30.0)
  end
  begin
     id 13 
     name thorax
     direction -0.0226159 0.981151 0.191917   
     length 1.71471   
     axis 0 0 0   XYZ
    dof rx ry rz
    limits (-20.0 45.0)
           (-30.0 30.0)
           (-30.0 30.0)
  end
  begin
     id 14 
     name lowerneck
     direction 0.0219333 0.998071 0.0580739   
     length 1.65882   
     axis 0 0 0   XYZ
    dof rx ry rz
    limits (-20.0 45.0)
           (-30.0 30.0)
           (-30.0 30.0)
  end
  begin
     id 15 
     name upperneck
     direction 0.0384529 0.980058 -0.194957   
     length 1.6612   
     axis 0 0 0   XYZ
    dof rx ry rz
    limits (-20.0 45.0)
           (-30.0 30.0)
           (-30.0 30.0)
  end
  begin
     id 16
     name head
     direction 0.00592123 0.997421 -0.0715234  
     length 1.68077  
     axis 0 0 0   XYZ
    dof rx ry rz
    limits (-20.0 45.0)
           (-30.0 30.0)
           (-30.0 30.0)
  end
  begin
     id 17 
     name lclavicle
     direction 0.904803 0.417826 0.0821728  
     length 3.42227  
     axis 0 0 0   XYZ
    dof ry rz
    limits (-20.0 10.0)
           (0.0 20.0)
  end
  begin
     id 18 
     name lhumerus
     direction 1 -4.48965e-011 -2.68786e-027   
     length 5.11878   
     axis -180 -30 -90   XYZ
    dof rx ry rz
    limits (-60.0 90.0)
           (-90.0 90.0)
           (-90.0 90.0)
  end
  begin
     id 19
     name lradius
     direction 1 -4.48965e-011 2.61168e-028   
     length 3.59971   
     axis -180 -30 -90   XYZ
    dof rx
    limits (-10.0 170.0)
  end
  begin
     id 20
     name lwrist
     direction 1 -4.48965e-011 1.58672e-027   
     length 1.79985   
     axis -1.65735e-015 90 90   XYZ
    dof ry
    limits (-180.0 0.0)
 end
  begin
     id 21 
     name lhand
     direction 1 -4.48942e-011 3.17344e-027   
     length 0.62877   
     axis -2.02492e-015 90 90   XYZ
    dof rx rz
    limits (-90.0 90.0)
           (-45.0 45.0)
  end
  begin
     id 22 
     name lfingers
     direction 1 -4.49011e-011 6.34687e-027   
     length 0.506931   
     axis -4.04985e-015 90 90   XYZ
    dof rx
    limits (0.0 90.0)
  end
  begin
     id 23
     name lthumb
     direction 0.707107 -6.34982e-011 0.707107   
     length 0.727854   
     axis -90 45 2.85299e-015   XYZ
    dof rx rz
    limits (-45.0 45.0)
           (-45.0 45.0)
  end
  begin
     id 24 
     name rclavicle
     direction -0.945647 0.32488 0.0143075   
     length 3.52737  
     axis 0 0 0   XYZ 
    dof ry rz
    limits (-10.0 20.0)
           (-20.0 0.0)
  end
  begin
     id 25 
     name rhumerus
     direction -1 -4.48962e-011 1.92182e-027  
     length 5.4902   
     axis -180 30 90   XYZ
    dof rx ry rz
    limits (-90.0 60.0)
           (-90.0 90.0)
           (-90.0 90.0)
  end
  begin
     id 26 
     name rradius
     direction -1 -4.48967e-011 -5.97193e-028   
     length 3.20659   
     axis -180 30 90   XYZ
    dof rx
    limits (-10.0 170.0)
  end
  begin
     id 27 
     name rwrist
     direction -1 -4.48964e-011 1.58672e-027   
     length 1.6033   
     axis -1.65735e-015 -90 -90   XYZ
    dof ry
    limits (-180.0 0.0)
  end
  begin
     id 28
     name rhand
     direction -1 -4.49006e-011 3.17344e-027   
     length 0.691885   
     axis -2.02492e-015 -90 -90   XYZ
    dof rx rz
    limits (-90.0 90.0)
           (-45.0 45.0)
  end
  begin
     id 29
     name rfingers
     direction -1 -4.48908e-011 6.34687e-027   
     length 0.557815   
     axis -4.04985e-015 -90 -90   XYZ
    dof rx
    limits (0.0 90.0)
  end
  begin
     id 30
     name rthumb
     direction -0.707107 -6.34999e-011 0.707107   
     length 0.800915   
     axis -90 -45 -2.85299e-015   XYZ
    dof rx rz
    limits (-45.0 45.0)
           (-45.0 45.0)
  end
:hierarchy
  begin
    root lhipjoint rhipjoint lowerback
    lhipjoint lfemur
    lfemur ltibia
    ltibia lfoot
    lfoot ltoes
    rhipjoint rfemur
    rfemur rtibia
    rtibia rfoot
    rfoot rtoes
    lowerback upperback
    upperback thorax
    thorax lowerneck lclavicle rclavicle
    lowerneck upperneck
    upperneck head
    lclavicle lhumerus
    lhumerus lradius
    lradius lwrist
    lwrist lhand lthumb
    lhand lfingers
    rclavicle rhumerus
    rhumerus rradius
    rradius rwrist
    rwrist rhand rthumb
    rhand rfingers
  end

#!OML:ASF I:\Actors\actors\Patient Classification 1\Patient 1\Session 1\Subject1.ASF
:FULLY-SPECIFIED
:DEGREES
118
root -0.343962 17.49 7.8187 5.0321 -0.255695 -7.64678
lowerback -0.22793 4.22466 5.89246
upperback -9.59621 6.00949 -0.176564
thorax -9.44616 2.47493 -3.90446
lowerneck -9.56765 -9.5435 -5.82864
upperneck 27.3826 -15.0432 8.55191
head 11.627 -6.50269 2.08181
rclavicle 7.95139e-016 4.77083e-015
rhumerus 28.0493 14.387 -57.3618
rradius 71.6464
rwrist -26.4482
rhand 20.8985 -50.681
rfingers 7.12502
rthumb 45.3711 -74.0329
lclavicle 7.95139e-016 4.77083e-015
lhumerus -52.9906 38.4847 46.3082
lradius 25.2216
lwrist -17.1276
lhand -25.0244 -20.9615
lfingers 7.12502
lthumb 1.48803 9.01309
rfemur 3.75688 22.9991 27.4514
rtibia 1.069
rfoot -13.1144 -22.7527
rtoes 1.3131
lfemur 12.4458 -40.2824 -19.0213
ltibia -4.98472
lfoot -14.7365 46.5026
ltoes 2.57214
119
root -0.340751 17.4889 7.82223 5.06203 -0.427458 -7.73279
lowerback -0.25835 4.17231 5.93565
upperback -9.57292 5.94162 -0.116418
thorax -9.41192 2.4425 -3.85655
lowerneck -9.51204 -9.56909 -6.11245
upperneck 27.2133 -15.103 8.86987
head 11.6105 -6.53055 2.23445
rclavicle -2.10712e-014 -7.95139e-016
rhumerus 27.899 14.0481 -56.9346
rradius 71.8092
rwrist -26.9622
rhand 21.6469 -50.806
rfingers 7.12502
rthumb 46.0661 -73.8729
lclavicle -2.10712e-014 -7.95139e-016
lhumerus -53.2738 38.672 45.8839
lradius 25.1103
lwrist -17.5841
lhand -24.9207 -21.0031
lfingers 7.12502
lthumb 1.58819 8.97076
rfemur 3.731 23.1011 27.5369
rtibia 1.08529
rfoot -13.0588 -22.7081
rtoes 1.12633
lfemur 12.5714 -40.385 -19.0459
ltibia -5.02369
lfoot -15.0595 46.7535
ltoes 3.05468
120
root -0.337149 17.4898 7.82424 5.12258 -0.60566 -7.7177
lowerback -0.288659 4.13371 5.90345
upperback -9.5722 5.88554 -0.108188
thorax -9.40245 2.41808 -3.82433
lowerneck -9.61326 -9.55414 -6.08696
upperneck 27.3107 -15.0876 8.8342
head 11.6618 -6.51845 2.21451
rclavicle 8.34896e-015 -1.51076e-014
rhumerus 27.743 13.7722 -56.4723
rradius 71.9468
rwrist -27.3999
rhand 22.2824 -50.8967
rfingers 7.12502
rthumb 46.655 -73.7134
lclavicle 8.34896e-015 -1.51076e-014
lhumerus -53.4156 38.5958 45.6951
lradius 24.9746
lwrist -17.7359
lhand -24.9547 -20.9933
lfingers 7.12502
lthumb 1.55536 8.98078
rfemur 3.65972 23.2344 27.4913
rtibia 1.10338
rfoot -13.0177 -22.6899
rtoes 0.993902
lfemur 12.5803 -40.3984 -19.1069
ltibia -5.01774
lfoot -15.1707 46.9131
ltoes 3.18219
121
root -0.333347 17.4907 7.826 5.18546 -0.817925 -7.62823
lowerback -0.31279 4.11919 5.80928
upperback -9.56775 5.85715 -0.124439
thorax -9.39185 2.41126 -3.78601
lowerneck -9.6124 -9.53864 -6.18018
upperneck 27.3022 -15.0863 8.96362
head 11.6789 -6.51328 2.27616
rclavicle -4.07509e-014 -1.03368e-014
rhumerus 27.5369 13.508 -55.9769
rradius 72.0958
rwrist -27.698
rhand 22.7847 -50.7443
rfingers 7.12502
rthumb 47.1198 -73.3576
lclavicle -4.07509e-014 -1.03368e-014
lhumerus -53.6506 38.693 45.3733
lradius 24.8161
lwrist -18.0629
lhand -25.0575 -20.9088
lfingers 7.12502
lthumb 1.456 9.06602
rfemur 3.55164 23.3189 27.3302
rtibia 1.14657
rfoot -12.9852 -22.5975
rtoes 0.801659
lfemur 12.5582 -40.3953 -19.2475
ltibia -4.96061
lfoot -15.2631 47.0523
ltoes 3.24643
122
root -0.328938 17.49 7.82784 5.19747 -1.04884 -7.60533
lowerback -0.0976231 4.05573 5.67761
upperback -9.67544 5.79309 -0.0334362
thorax -9.66843 2.38054 -3.63866
lowerneck -9.55078 -9.46248 -6.26203
upperneck 27.39 -14.97 8.94798
head 11.695 -6.47136 2.30483
rclavicle 1.33186e-014 -3.97569e-015
rhumerus 27.2469 13.4458 -55.605
rradius 72.2089
rwrist -27.8527
rhand 23.5833 -50.6695
rfingers 7.12502
rthumb 47.8574 -72.9485
lclavicle 1.33186e-014 -3.97569e-015
lhumerus -54.329 38.8994 44.6867
lradius 24.6222
lwrist -18.6104
lhand -25.2159 -20.9294
lfingers 7.12502
lthumb 1.30307 9.0464
rfemur 3.48087 23.2868 27.2396
rtibia 1.19888
rfoot -12.9544 -22.3863
rtoes 0.547614
lfemur 12.6435 -40.4028 -19.383
ltibia -4.94007
lfoot -15.3179 47.2516
ltoes 3.1293
123
root -0.324354 17.4889 7.8302 5.21957 -1.257 -7.63575
lowerback 0.101774 3.96892 5.57576
upperback -9.79502 5.7008 0.0886605
thorax -9.95337 2.33516 -3.47115
lowerneck -9.57855 -9.39649 -6.20297
upperneck 27.595 -14.8568 8.75682
head 11.7466 -6.42958 2.24248
rclavicle -3.33958e-014 1.11319e-014
rhumerus 27.035 13.4221 -55.3153
rradius 72.2331
rwrist -28.0663
rhand 24.5134 -50.614
rfingers 7.12502
rthumb 48.714 -72.4866
lclavicle -3.33958e-014 1.11319e-014
lhumerus -55.066 39.0879 43.9444
lradius 24.4209
lwrist -19.1497
lhand -25.2308 -20.9282
lfingers 7.12502
lthumb 1.28863 9.04768
rfemur 3.43088 23.2642 27.2196
rtibia 1.2148
rfoot -12.923 -22.1837
rtoes 0.511543
lfemur 12.7354 -40.4262 -19.4537
ltibia -4.94895
lfoot -15.3489 47.4488
ltoes 3.08875
